<?xml version="1.0" encoding="utf-8"?>
<!-- Generator: Adobe Illustrator 22.1.0, SVG Export Plug-In . SVG Version: 6.00 Build 0)  -->
<svg version="1.1" id="Layer_1" xmlns="http://www.w3.org/2000/svg" xmlns:xlink="http://www.w3.org/1999/xlink" x="0px" y="0px"
	 viewBox="0 0 100 100" style="enable-background:new 0 0 100 100;" xml:space="preserve">
<style type="text/css">
	.st0{fill:#FEEA3A;}
	.st1{opacity:5.000000e-02;fill:#212120;}
	.st2{fill:#212120;}
	.st3{fill:#E44C25;}
	.st4{fill:#9E9D9E;}
</style>
<g>
	<circle class="st0" cx="50.6" cy="50" r="41.1"/>
	<g>
		<polygon class="st1" points="37.2,68.9 61.5,93.3 91.7,65.5 62.2,35.1 		"/>
		<circle cx="52.8" cy="45.3" r="12.2"/>
		<path class="st2" d="M50.6,1.4C23.7,1.4,2,23.2,2,50c0,26.8,21.7,48.6,48.6,48.6S99.1,76.8,99.1,50C99.1,23.2,77.4,1.4,50.6,1.4z
			 M50.6,86.6C30.3,86.6,14,70.2,14,50c0-20.2,16.4-36.6,36.6-36.6S87.2,29.8,87.2,50C87.2,70.2,70.8,86.6,50.6,86.6z"/>
		<path class="st2" d="M52,31.1h-2.8h-9.3h-2.7v37.8h12v-9.3c0.9,0.2,1.9,0.3,2.8,0.3c8.2,0,14.8-6.4,14.8-14.4S60.2,31.1,52,31.1z"
			/>
		<circle class="st3" cx="70.9" cy="33.1" r="3.2"/>
		<path class="st4" d="M52.8,33.1c-6.7,0-12.2,5.4-12.2,12.2c0,6.7,5.4,12.2,12.2,12.2c6.7,0,12.2-5.4,12.2-12.2
			C64.9,38.6,59.5,33.1,52.8,33.1z M52.8,56C46.8,56,42,51.2,42,45.3c0-5.9,4.8-10.7,10.7-10.7c5.9,0,10.7,4.8,10.7,10.7
			C63.5,51.2,58.7,56,52.8,56z"/>
		<g>
			<path class="st4" d="M61,47.7c-0.6,0-1.1-0.5-1.1-1.1c0-4.5-3.5-8.1-7.9-8.1c-0.6,0-1.1-0.5-1.1-1.1c0-0.6,0.5-1.1,1.1-1.1
				c5.6,0,10.2,4.7,10.2,10.4C62.2,47.2,61.7,47.7,61,47.7z"/>
		</g>
	</g>
</g>
</svg>
